<?xml version="1.0" standalone="no"?>
<!DOCTYPE svg PUBLIC "-//W3C//DTD SVG 20010904//EN"
 "http://www.w3.org/TR/2001/REC-SVG-20010904/DTD/svg10.dtd">
<svg version="1.0" xmlns="http://www.w3.org/2000/svg"
 width="320.000000pt" height="320.000000pt" viewBox="0 0 320.000000 320.000000"
 preserveAspectRatio="xMidYMid meet">

<g transform="translate(0.000000,320.000000) scale(0.100000,-0.100000)"
fill="#000000" stroke="none">
<path d="M300 3166 c-116 -33 -211 -113 -263 -224 l-32 -67 -3 -1260 c-2 -940
0 -1274 9 -1315 25 -116 105 -222 207 -274 l51 -26 1331 0 1331 0 51 26 c72
36 143 112 181 192 l32 67 3 1260 c2 940 0 1274 -9 1315 -26 124 -109 227
-227 283 l-67 32 -1275 2 c-1000 1 -1285 -1 -1320 -11z m720 -653 c36 -13 83
-34 105 -47 22 -13 78 -43 125 -67 47 -23 166 -87 265 -142 204 -113 362 -193
418 -213 l37 -13 83 75 c101 92 180 134 252 134 52 0 80 -14 196 -95 l42 -30
316 -4 316 -3 -327 -83 c-187 -47 -345 -93 -370 -107 -61 -33 -99 -97 -149
-245 -69 -211 -141 -336 -258 -454 -108 -108 -192 -157 -475 -280 -55 -23
-139 -68 -187 -100 -103 -68 -274 -229 -372 -352 -38 -48 -71 -86 -73 -84 -7
6 48 192 83 282 50 128 179 392 252 515 45 74 60 109 54 119 -5 8 -74 31 -154
52 -160 41 -304 93 -388 141 -98 56 -171 136 -171 186 0 10 -19 32 -45 50 -67
47 -70 103 -7 136 38 19 153 44 245 52 67 6 77 9 71 23 -36 81 -54 153 -54
224 0 50 -7 98 -19 135 -28 81 -35 151 -19 182 30 56 85 59 208 13z"/>
</g>
</svg>
